<svg width="165" height="28" viewBox="0 0 165 28" fill="none" xmlns="http://www.w3.org/2000/svg">
<path d="M10.276 27.36C8.644 27.36 7.09 27.09 5.614 26.55C4.15 25.998 2.914 25.182 1.906 24.102C0.91 23.022 0.304 21.684 0.0880001 20.088H3.58C3.904 21.564 4.69 22.686 5.938 23.454C7.186 24.21 8.626 24.588 10.258 24.588C12.094 24.588 13.618 24.21 14.83 23.454C16.054 22.686 16.666 21.642 16.666 20.322C16.666 19.146 16.27 18.21 15.478 17.514C14.698 16.806 13.588 16.284 12.148 15.948L7.036 14.76C5.116 14.34 3.61 13.59 2.518 12.51C1.438 11.43 0.886 10.002 0.862 8.226C0.862 6.726 1.258 5.406 2.05 4.266C2.842 3.126 3.94 2.238 5.344 1.602C6.748 0.965999 8.35 0.647998 10.15 0.647998C12.226 0.647998 13.972 1.002 15.388 1.71C16.804 2.418 17.872 3.348 18.592 4.5C19.312 5.652 19.678 6.882 19.69 8.19H16.252C16.144 7.014 15.796 6.084 15.208 5.4C14.632 4.704 13.9 4.212 13.012 3.924C12.136 3.624 11.188 3.474 10.168 3.474C9.184 3.474 8.248 3.642 7.36 3.978C6.484 4.314 5.764 4.812 5.2 5.472C4.648 6.12 4.372 6.93 4.372 7.902C4.372 8.85 4.69 9.618 5.326 10.206C5.962 10.782 7.132 11.28 8.836 11.7L13.786 12.888C15.514 13.26 16.828 13.854 17.728 14.67C18.628 15.474 19.24 16.374 19.564 17.37C19.9 18.366 20.068 19.338 20.068 20.286C20.068 21.594 19.678 22.782 18.898 23.85C18.13 24.918 17.014 25.77 15.55 26.406C14.086 27.042 12.328 27.36 10.276 27.36ZM25.0118 27V8.388H28.1798V11.97C28.6478 10.638 29.3858 9.648 30.3938 9C31.4138 8.352 32.5118 8.028 33.6878 8.028C33.9638 8.028 34.2278 8.046 34.4798 8.082C34.7438 8.118 34.9538 8.178 35.1098 8.262V11.484C34.9298 11.4 34.6958 11.346 34.4078 11.322C34.1318 11.286 33.8978 11.268 33.7058 11.268C32.2298 11.172 30.9638 11.454 29.9078 12.114C28.8518 12.774 28.3238 13.878 28.3238 15.426V27H25.0118ZM35.5933 27V22.752H39.5533V27H35.5933ZM45.1724 27V0.971998H49.7804L57.6284 22.464L65.5844 0.971998H70.1744V27H66.7364V5.958L59.1944 27H56.0804L48.5924 6.156V27H45.1724ZM83.2151 27.36C81.9191 27.348 80.7311 27.108 79.6511 26.64C78.5711 26.16 77.7011 25.452 77.0411 24.516C76.3931 23.58 76.0691 22.416 76.0691 21.024V8.388H79.3991V20.682C79.3991 21.894 79.7711 22.878 80.5151 23.634C81.2711 24.39 82.4051 24.768 83.9171 24.768C85.2851 24.768 86.3831 24.414 87.2111 23.706C88.0511 22.986 88.4711 21.918 88.4711 20.502V8.388H91.7831V27H89.1371L88.7951 23.436C88.4591 24.84 87.7751 25.848 86.7431 26.46C85.7111 27.072 84.5351 27.372 83.2151 27.36ZM99.3527 18.468C99.3527 19.644 99.5447 20.712 99.9287 21.672C100.325 22.62 100.919 23.376 101.711 23.94C102.515 24.504 103.517 24.786 104.717 24.786C105.905 24.786 106.925 24.51 107.777 23.958C108.641 23.406 109.193 22.608 109.433 21.564H112.583C112.355 22.824 111.851 23.886 111.071 24.75C110.291 25.614 109.349 26.268 108.245 26.712C107.141 27.144 105.989 27.36 104.789 27.36C103.049 27.36 101.519 26.982 100.199 26.226C98.8787 25.47 97.8467 24.384 97.1027 22.968C96.3587 21.552 95.9867 19.854 95.9867 17.874C95.9867 15.918 96.3227 14.202 96.9947 12.726C97.6667 11.25 98.6387 10.098 99.9107 9.27C101.195 8.442 102.737 8.028 104.537 8.028C107.165 8.028 109.181 8.862 110.585 10.53C111.989 12.186 112.691 14.424 112.691 17.244V18.468H99.3527ZM99.3707 16.218H109.487C109.487 14.622 109.079 13.278 108.263 12.186C107.447 11.094 106.199 10.548 104.519 10.548C103.355 10.548 102.389 10.83 101.621 11.394C100.853 11.946 100.283 12.66 99.9107 13.536C99.5387 14.4 99.3587 15.294 99.3707 16.218ZM126.46 27.36C125.008 27.36 123.85 27.114 122.986 26.622C122.122 26.13 121.474 25.554 121.042 24.894C120.61 24.234 120.316 23.664 120.16 23.184L119.8 27H117.262V0.251999H120.61V11.34C120.814 10.932 121.168 10.47 121.672 9.954C122.176 9.438 122.842 8.988 123.67 8.604C124.51 8.22 125.524 8.028 126.712 8.028C129.04 8.028 130.888 8.838 132.256 10.458C133.636 12.078 134.326 14.466 134.326 17.622C134.326 20.55 133.666 22.908 132.346 24.696C131.038 26.472 129.076 27.36 126.46 27.36ZM125.866 24.804C127.366 24.804 128.59 24.222 129.538 23.058C130.498 21.882 130.978 20.016 130.978 17.46C130.978 15.288 130.534 13.608 129.646 12.42C128.77 11.22 127.486 10.62 125.794 10.62C123.946 10.62 122.626 11.22 121.834 12.42C121.042 13.608 120.634 15.288 120.61 17.46C120.61 20.064 121.012 21.942 121.816 23.094C122.632 24.234 123.982 24.804 125.866 24.804ZM143.37 27.234C142.026 27.234 141.018 27 140.346 26.532C139.674 26.052 139.224 25.434 138.996 24.678C138.78 23.91 138.672 23.088 138.672 22.212V0.251999H141.948V21.888C141.948 22.836 142.128 23.544 142.488 24.012C142.86 24.468 143.376 24.72 144.036 24.768L145.044 24.786V26.946C144.444 27.138 143.886 27.234 143.37 27.234ZM151.454 18.468C151.454 19.644 151.646 20.712 152.03 21.672C152.426 22.62 153.02 23.376 153.812 23.94C154.616 24.504 155.618 24.786 156.818 24.786C158.006 24.786 159.026 24.51 159.878 23.958C160.742 23.406 161.294 22.608 161.534 21.564H164.684C164.456 22.824 163.952 23.886 163.172 24.75C162.392 25.614 161.45 26.268 160.346 26.712C159.242 27.144 158.09 27.36 156.89 27.36C155.15 27.36 153.62 26.982 152.3 26.226C150.98 25.47 149.948 24.384 149.204 22.968C148.46 21.552 148.088 19.854 148.088 17.874C148.088 15.918 148.424 14.202 149.096 12.726C149.768 11.25 150.74 10.098 152.012 9.27C153.296 8.442 154.838 8.028 156.638 8.028C159.266 8.028 161.282 8.862 162.686 10.53C164.09 12.186 164.792 14.424 164.792 17.244V18.468H151.454ZM151.472 16.218H161.588C161.588 14.622 161.18 13.278 160.364 12.186C159.548 11.094 158.3 10.548 156.62 10.548C155.456 10.548 154.49 10.83 153.722 11.394C152.954 11.946 152.384 12.66 152.012 13.536C151.64 14.4 151.46 15.294 151.472 16.218Z" fill="#3A3A3A"/>
</svg>
